<?xml version="1.0" encoding="utf-8"?>
<!-- Generator: Adobe Illustrator 24.1.1, SVG Export Plug-In . SVG Version: 6.00 Build 0)  -->
<svg version="1.1" id="Layer_1" xmlns="http://www.w3.org/2000/svg" xmlns:xlink="http://www.w3.org/1999/xlink" x="0px" y="0px"
	 viewBox="0 0 512 512" style="enable-background:new 0 0 512 512;" xml:space="preserve">
<g>
	<path d="M441.9,67.5C395-0.5,303.3-20.2,232.6,22.6l-119.6,76c-32.7,20.5-55.1,53.9-61.7,91.8c-5.9,31.5-0.8,64.1,14.3,92.5
		c-10.3,15.4-17.2,32.9-20.3,51.2c-6.8,38.5,2.1,78.2,24.8,110.2c47,67.9,138.5,87.7,209.3,45.3l119.6-76.1
		c32.5-20.5,54.9-53.9,61.5-91.8c5.8-31.5,0.7-64-14.4-92.2C478,179.7,476.3,115.6,441.9,67.5z M220.7,451
		c-38.5,10-79.1-5.1-101.7-37.8c-13.9-19.2-18.9-42.9-14.9-66.4l2.3-11.3l2.2-7l6.4,4.3c14.1,10.7,29.9,18.4,46.7,23.5l4.3,1.5
		l-0.5,4.3c-0.4,5.9,1.3,12.6,4.8,17.7c7,10.1,19.2,14.9,30.9,11.8c2.6-0.8,5.1-1.7,7.3-3l119.1-76c6-3.8,9.9-9.6,11.3-16.4
		c1.3-7.1-0.4-14.4-4.3-20.1c-7.1-9.9-19.2-14.3-30.9-11.3c-2.6,0.9-5.3,1.9-7.5,3.3l-45.1,28.6c-42.6,25.4-97.7,13.4-126-27.4
		c-13.8-19.2-19.2-43.1-15-66.4c4.2-23,17.9-43.2,37.9-55.6l118.9-76c7.5-4.7,15.6-8.1,24.4-10.7c38.5-10,79,5.1,101.7,37.6
		c16,22.5,20.5,51.3,12.2,77.7l-2.2,7.1l-6.2-4.3c-14.3-10.4-30.1-18.4-47-23.5l-4.3-1.3l0.4-4.3c0.4-6.3-1.3-12.8-4.8-17.9
		c-7-10.1-19.2-14.4-30.9-11.3c-2.6,0.8-5.1,1.7-7.3,3l-119.4,76.7c-6,4-9.9,9.6-11.1,16.6c-1.2,6.8,0.4,14.4,4.3,19.9
		c6.8,10.1,19.3,14.4,30.8,11.3c2.8-0.8,5.3-1.7,7.4-3l45.5-29c7.4-4.9,15.8-8.5,24.3-10.8c38.7-10.1,79.1,5.1,101.7,37.8
		c13.9,19.2,19.2,42.9,15.3,66.1c-4,23-17.6,43.2-37.4,55.6l-119.1,75.8C237.7,444.8,229.4,448.5,220.7,451L220.7,451z"/>
</g>
</svg>
